<?xml version="1.0" encoding="UTF-8" standalone="no"?>
<svg
   xmlns:dc="http://purl.org/dc/elements/1.1/"
   xmlns:cc="http://creativecommons.org/ns#"
   xmlns:rdf="http://www.w3.org/1999/02/22-rdf-syntax-ns#"
   xmlns:svg="http://www.w3.org/2000/svg"
   xmlns="http://www.w3.org/2000/svg"
   xmlns:sodipodi="http://sodipodi.sourceforge.net/DTD/sodipodi-0.dtd"
   xmlns:inkscape="http://www.inkscape.org/namespaces/inkscape"
   viewBox="0 0 348 348"
   fill="none"
   version="1.1"
   id="svg851"
   sodipodi:docname="Encrypted Memory.svg"
   inkscape:version="0.92.4 (5da689c313, 2019-01-14)">
  <metadata
     id="metadata40">
    <rdf:RDF>
      <cc:Work
         rdf:about="">
        <dc:format>image/svg+xml</dc:format>
        <dc:type
           rdf:resource="http://purl.org/dc/dcmitype/StillImage" />
        <dc:title></dc:title>
      </cc:Work>
    </rdf:RDF>
  </metadata>
  <defs
     id="defs38" />
  <sodipodi:namedview
     pagecolor="#ffffff"
     bordercolor="#666666"
     borderopacity="1"
     objecttolerance="10"
     gridtolerance="10"
     guidetolerance="10"
     inkscape:pageopacity="0"
     inkscape:pageshadow="2"
     inkscape:window-width="1920"
     inkscape:window-height="1057"
     id="namedview36"
     showgrid="false"
     inkscape:zoom="2.7577352"
     inkscape:cx="126.19758"
     inkscape:cy="163.2873"
     inkscape:window-x="1912"
     inkscape:window-y="-8"
     inkscape:window-maximized="1"
     inkscape:current-layer="svg851"
     inkscape:snap-bbox="true"
     inkscape:snap-bbox-midpoints="true" />
  <style
     id="style859" />
  <path
     d="M5.079 5.776h336.913v337.67H5.08z"
     stroke-width="2"
     stroke="#000"
     id="path847" />
  <path
     d="M282.734 40.554c0-8.376 6.966-15.165 15.56-15.165 4.126 0 8.084 1.597 11.001 4.441 2.918 2.844 4.558 6.702 4.558 10.724 0 8.376-6.966 15.165-15.56 15.165-8.593 0-15.559-6.79-15.559-15.165z"
     stroke-width="2"
     stroke="#000"
     id="path849" />
  <rect
     id="rect861"
     width="232.793"
     height="143.874"
     x="22.992"
     y="26.467"
     rx="0"
     fill="none"
     fill-opacity="1"
     stroke="#000"
     stroke-width="1.931"
     stroke-opacity="1" />
  <rect
     id="rect863"
     width="168.29"
     height="98.694"
     x="54.198"
     y="48.219"
     rx="0"
     fill="#000"
     fill-opacity="1"
     stroke="#000"
     stroke-width="2.189"
     stroke-miterlimit="4"
     stroke-dasharray="none"
     stroke-opacity="1" />
  <circle
     id="path865"
     cx="38.478"
     cy="55.417"
     r="7.131"
     fill="none"
     fill-opacity="1"
     stroke="#000"
     stroke-width="1.825"
     stroke-miterlimit="4"
     stroke-dasharray="none"
     stroke-opacity="1" />
  <circle
     id="circle867"
     cx="38.478"
     cy="140.379"
     r="7.131"
     fill="none"
     fill-opacity="1"
     stroke="#000"
     stroke-width="1.825"
     stroke-miterlimit="4"
     stroke-dasharray="none"
     stroke-opacity="1" />
  <circle
     id="circle869"
     cx="239.298"
     cy="55.417"
     r="7.131"
     fill="none"
     fill-opacity="1"
     stroke="#000"
     stroke-width="1.825"
     stroke-miterlimit="4"
     stroke-dasharray="none"
     stroke-opacity="1" />
  <circle
     id="circle871"
     cx="239.298"
     cy="140.379"
     r="7.131"
     fill="none"
     fill-opacity="1"
     stroke="#000"
     stroke-width="1.825"
     stroke-miterlimit="4"
     stroke-dasharray="none"
     stroke-opacity="1" />
  <rect
     id="rect873"
     width="47.742"
     height="191.113"
     x="274.57"
     y="132.533"
     rx="0"
     fill="none"
     fill-opacity="1"
     stroke="#000"
     stroke-width="1.938"
     stroke-miterlimit="4"
     stroke-dasharray="none"
     stroke-opacity="1" />
  <path
     id="rect875"
     fill="none"
     fill-opacity="1"
     stroke="#000"
     stroke-width="2.169"
     stroke-miterlimit="4"
     stroke-dasharray="none"
     stroke-opacity="1"
     d="M283.316 142.183h30.181v20.842h-30.181z" />
  <path
     id="rect877"
     fill="none"
     fill-opacity="1"
     stroke="#000"
     stroke-width="2.169"
     stroke-miterlimit="4"
     stroke-dasharray="none"
     stroke-opacity="1"
     d="M283.316 180.057h30.181v20.842h-30.181z" />
  <path
     id="rect879"
     fill="none"
     fill-opacity="1"
     stroke="#000"
     stroke-width="2.169"
     stroke-miterlimit="4"
     stroke-dasharray="none"
     stroke-opacity="1"
     d="M283.316 217.931h30.181v20.842h-30.181z" />
  <path
     id="rect881"
     fill="none"
     fill-opacity="1"
     stroke="#000"
     stroke-width="2.169"
     stroke-miterlimit="4"
     stroke-dasharray="none"
     stroke-opacity="1"
     d="M283.316 255.805h30.181v20.842h-30.181z" />
  <path
     id="rect883"
     fill="none"
     fill-opacity="1"
     stroke="#000"
     stroke-width="2.169"
     stroke-miterlimit="4"
     stroke-dasharray="none"
     stroke-opacity="1"
     d="M283.316 293.679h30.181v20.842h-30.181z" />
  <path
     id="rect885"
     d="M23.026 212.884h232.87v111.22H23.025z"
     fill="none"
     fill-opacity="1"
     stroke="#000"
     stroke-width="1.938"
     stroke-miterlimit="4"
     stroke-dasharray="none"
     stroke-opacity="1" />
  <path
     id="rect887"
     d="M33.03 223.323h45.43v90.343H33.03z"
     fill="none"
     fill-opacity="1"
     stroke="#000"
     stroke-width="1.962"
     stroke-miterlimit="4"
     stroke-dasharray="none"
     stroke-opacity="1" />
  <path
     id="rect889"
     d="M88.389 223.323h45.43v90.343h-45.43z"
     fill="none"
     fill-opacity="1"
     stroke="#000"
     stroke-width="1.962"
     stroke-miterlimit="4"
     stroke-dasharray="none"
     stroke-opacity="1" />
  <path
     id="rect891"
     d="M143.747 223.323h45.43v90.343h-45.43z"
     fill="none"
     fill-opacity="1"
     stroke="#000"
     stroke-width="1.962"
     stroke-miterlimit="4"
     stroke-dasharray="none"
     stroke-opacity="1" />
  <path
     id="rect893"
     d="M199.106 223.323h45.429v90.343h-45.43z"
     fill="none"
     fill-opacity="1"
     stroke="#000"
     stroke-width="1.962"
     stroke-miterlimit="4"
     stroke-dasharray="none"
     stroke-opacity="1" />
  <g
     aria-label="P2"
     style="font-style:normal;font-variant:normal;font-weight:normal;font-stretch:normal;font-size:74.66666412px;line-height:1.25;font-family:sans-serif;-inkscape-font-specification:sans-serif;font-variant-ligatures:normal;font-variant-position:normal;font-variant-caps:normal;font-variant-numeric:normal;font-variant-alternates:normal;font-feature-settings:normal;text-indent:0;text-align:center;text-decoration:none;text-decoration-line:none;text-decoration-style:solid;text-decoration-color:#000000;letter-spacing:0px;word-spacing:0px;text-transform:none;writing-mode:lr-tb;direction:ltr;text-orientation:mixed;dominant-baseline:auto;baseline-shift:baseline;text-anchor:middle;white-space:normal;shape-padding:0;opacity:1;vector-effect:none;fill:#ffffff;fill-opacity:1;stroke:none;stroke-width:0.99999994;stroke-linecap:butt;stroke-linejoin:miter;stroke-miterlimit:4;stroke-dasharray:none;stroke-dashoffset:0;stroke-opacity:1"
     id="text849">
    <path
       d="m 133.6581,87.394131 q 0,3.609375 -1.27605,6.708333 -1.23958,3.0625 -3.5,5.322916 -2.80729,2.80729 -6.63541,4.22917 -3.82813,1.38541 -9.66146,1.38541 h -7.21875 v 20.23438 H 98.147681 V 70.987881 h 14.729169 q 4.88541,0 8.27604,0.838542 3.39062,0.802083 6.01562,2.552083 3.09896,2.078125 4.77604,5.177083 1.71355,3.098959 1.71355,7.838542 z m -7.51042,0.182291 q 0,-2.807291 -0.98437,-4.885416 -0.98438,-2.078125 -2.98959,-3.390625 -1.75,-1.130208 -4.01041,-1.604167 -2.22396,-0.510416 -5.65105,-0.510416 h -7.14583 v 21.692707 h 6.08854 q 4.375,0 7.10938,-0.765625 2.73437,-0.802083 4.44791,-2.515625 1.71355,-1.749999 2.40625,-3.682291 0.72917,-1.932292 0.72917,-4.338542 z"
       style=""
       id="path851" />
    <path
       d="m 178.5383,125.27434 h -36.74999 v -7.61979 q 3.82812,-3.28125 7.65625,-6.5625 3.86458,-3.28125 7.18229,-6.52604 7,-6.781255 9.58854,-10.755213 2.58854,-4.010416 2.58854,-8.640625 0,-4.229166 -2.80729,-6.598958 -2.77083,-2.40625 -7.76563,-2.40625 -3.3177,0 -7.18229,1.166667 -3.86458,1.166667 -7.54687,3.572917 h -0.36459 v -7.65625 q 2.58855,-1.276042 6.89063,-2.333333 4.33854,-1.057292 8.38542,-1.057292 8.34895,0 13.08854,4.046875 4.73958,4.010416 4.73958,10.901041 0,3.098958 -0.80208,5.796875 -0.76563,2.661458 -2.29688,5.067708 -1.42187,2.260417 -3.35416,4.447918 -1.89584,2.1875 -4.63021,4.84896 -3.90104,3.82812 -8.05729,7.4375 -4.15625,3.57291 -7.76563,6.63541 h 29.20312 z"
       style=""
       id="path853" />
  </g>
  <g
     aria-label="4"
     style="font-style:normal;font-variant:normal;font-weight:normal;font-stretch:normal;font-size:64px;line-height:1.25;font-family:sans-serif;-inkscape-font-specification:sans-serif;font-variant-ligatures:normal;font-variant-position:normal;font-variant-caps:normal;font-variant-numeric:normal;font-variant-alternates:normal;font-feature-settings:normal;text-indent:0;text-align:center;text-decoration:none;text-decoration-line:none;text-decoration-style:solid;text-decoration-color:#000000;letter-spacing:0px;word-spacing:0px;text-transform:none;writing-mode:lr-tb;direction:ltr;text-orientation:mixed;dominant-baseline:auto;baseline-shift:baseline;text-anchor:middle;white-space:normal;shape-padding:0;opacity:1;vector-effect:none;fill:#000000;fill-opacity:1;stroke:none;stroke-width:0.99999994;stroke-linecap:butt;stroke-linejoin:miter;stroke-miterlimit:4;stroke-dasharray:none;stroke-dashoffset:0;stroke-opacity:1"
     id="text858">
    <path
       d="m 239.41374,278.66638 h -6.90625 v 13.09375 h -6 v -13.09375 h -22.28125 v -7.1875 l 22.53125,-26.25 h 5.75 v 28.4375 h 6.90625 z m -12.90625,-5 v -21 l -18.03125,21 z"
       style=""
       id="path863" />
  </g>
  <g
     aria-label="3"
     style="font-style:normal;font-variant:normal;font-weight:normal;font-stretch:normal;font-size:64px;line-height:1.25;font-family:sans-serif;-inkscape-font-specification:sans-serif;font-variant-ligatures:normal;font-variant-position:normal;font-variant-caps:normal;font-variant-numeric:normal;font-variant-alternates:normal;font-feature-settings:normal;text-indent:0;text-align:center;text-decoration:none;text-decoration-line:none;text-decoration-style:solid;text-decoration-color:#000000;letter-spacing:0px;word-spacing:0px;text-transform:none;writing-mode:lr-tb;direction:ltr;text-orientation:mixed;dominant-baseline:auto;baseline-shift:baseline;text-anchor:middle;white-space:normal;shape-padding:0;opacity:1;vector-effect:none;fill:#000000;fill-opacity:1;stroke:none;stroke-width:0.99999994;stroke-linecap:butt;stroke-linejoin:miter;stroke-miterlimit:4;stroke-dasharray:none;stroke-dashoffset:0;stroke-opacity:1"
     id="text844">
    <path
       d="m 178.35263,269.35388 q 1.5,1.34375 2.46875,3.375 0.96875,2.03125 0.96875,5.25 0,3.1875 -1.15625,5.84375 -1.15625,2.65625 -3.25,4.625 -2.34375,2.1875 -5.53125,3.25 -3.15625,1.03125 -6.9375,1.03125 -3.875,0 -7.625,-0.9375 -3.75,-0.90625 -6.15625,-2 v -6.53125 h 0.46875 q 2.65625,1.75 6.25,2.90625 3.59375,1.15625 6.9375,1.15625 1.96875,0 4.1875,-0.65625 2.21875,-0.65625 3.59375,-1.9375 1.4375,-1.375 2.125,-3.03125 0.71875,-1.65625 0.71875,-4.1875 0,-2.5 -0.8125,-4.125 -0.78125,-1.65625 -2.1875,-2.59375 -1.40625,-0.96875 -3.40625,-1.3125 -2,-0.375 -4.3125,-0.375 h -2.8125 v -5.1875 h 2.1875 q 4.75,0 7.5625,-1.96875 2.84375,-2 2.84375,-5.8125 0,-1.6875 -0.71875,-2.9375 -0.71875,-1.28125 -2,-2.09375 -1.34375,-0.8125 -2.875,-1.125 -1.53125,-0.3125 -3.46875,-0.3125 -2.96875,0 -6.3125,1.0625 -3.34375,1.0625 -6.3125,3 h -0.3125 v -6.53125 q 2.21875,-1.09375 5.90625,-2 3.71875,-0.9375 7.1875,-0.9375 3.40625,0 6,0.625 2.59375,0.625 4.6875,2 2.25,1.5 3.40625,3.625 1.15625,2.125 1.15625,4.96875 0,3.875 -2.75,6.78125 -2.71875,2.875 -6.4375,3.625 v 0.4375 q 1.5,0.25 3.4375,1.0625 1.9375,0.78125 3.28125,1.96875 z"
       style=""
       id="path860" />
  </g>
  <g
     aria-label="2"
     style="font-style:normal;font-variant:normal;font-weight:normal;font-stretch:normal;font-size:64px;line-height:1.25;font-family:sans-serif;-inkscape-font-specification:sans-serif;font-variant-ligatures:normal;font-variant-position:normal;font-variant-caps:normal;font-variant-numeric:normal;font-variant-alternates:normal;font-feature-settings:normal;text-indent:0;text-align:center;text-decoration:none;text-decoration-line:none;text-decoration-style:solid;text-decoration-color:#000000;letter-spacing:0px;word-spacing:0px;text-transform:none;writing-mode:lr-tb;direction:ltr;text-orientation:mixed;dominant-baseline:auto;baseline-shift:baseline;text-anchor:middle;white-space:normal;shape-padding:0;opacity:1;vector-effect:none;fill:#000000;fill-opacity:1;stroke:none;stroke-width:0.99999994;stroke-linecap:butt;stroke-linejoin:miter;stroke-miterlimit:4;stroke-dasharray:none;stroke-dashoffset:0;stroke-opacity:1"
     id="text848">
    <path
       d="M 126.854,292.24451 H 95.353996 v -6.53125 q 3.28125,-2.8125 6.562504,-5.625 3.3125,-2.8125 6.15625,-5.59375 6,-5.8125 8.21875,-9.21875 2.21875,-3.4375 2.21875,-7.40625 0,-3.625 -2.40625,-5.65625 -2.375,-2.0625 -6.65625,-2.0625 -2.84375,0 -6.15625,1 -3.312504,1 -6.468754,3.0625 h -0.3125 v -6.5625 q 2.21875,-1.09375 5.906254,-2 3.71875,-0.90625 7.1875,-0.90625 7.15625,0 11.21875,3.46875 4.0625,3.4375 4.0625,9.34375 0,2.65625 -0.6875,4.96875 -0.65625,2.28125 -1.96875,4.34375 -1.21875,1.9375 -2.875,3.8125 -1.625,1.875 -3.96875,4.15625 -3.34375,3.28125 -6.90625,6.375 -3.5625,3.0625 -6.65625,5.6875 H 126.854 Z"
       style=""
       id="path857" />
  </g>
  <g
     aria-label="1"
     style="font-style:normal;font-variant:normal;font-weight:normal;font-stretch:normal;font-size:64px;line-height:1.25;font-family:sans-serif;-inkscape-font-specification:sans-serif;font-variant-ligatures:normal;font-variant-position:normal;font-variant-caps:normal;font-variant-numeric:normal;font-variant-alternates:normal;font-feature-settings:normal;text-indent:0;text-align:center;text-decoration:none;text-decoration-line:none;text-decoration-style:solid;text-decoration-color:#000000;letter-spacing:0px;word-spacing:0px;text-transform:none;writing-mode:lr-tb;direction:ltr;text-orientation:mixed;dominant-baseline:auto;baseline-shift:baseline;text-anchor:middle;white-space:normal;shape-padding:0;opacity:1;vector-effect:none;fill:#000000;fill-opacity:1;stroke:none;stroke-width:0.99999994;stroke-linecap:butt;stroke-linejoin:miter;stroke-miterlimit:4;stroke-dasharray:none;stroke-dashoffset:0;stroke-opacity:1"
     id="text852">
    <path
       d="m 68.338749,291.83826 h -25.1875 v -4.75 h 9.6875 v -31.1875 h -9.6875 v -4.25 q 1.96875,0 4.21875,-0.3125 2.25,-0.34375 3.40625,-0.96875 1.4375,-0.78125 2.25,-1.96875 0.84375,-1.21875 0.96875,-3.25 h 4.84375 v 41.9375 h 9.5 z"
       style=""
       id="path854" />
  </g>
</svg>
